<svg width="48" height="48" viewBox="0 0 48 48" fill="none" xmlns="http://www.w3.org/2000/svg">
<path d="M24 44C21.2 44 18.5833 43.475 16.15 42.425C13.7167 41.375 11.6 39.95 9.8 38.15C8 36.35 6.58333 34.225 5.55 31.775C4.51667 29.325 4 26.7 4 23.9C4 21.1 4.51667 18.4917 5.55 16.075C6.58333 13.6583 8 11.55 9.8 9.75C11.6 7.95 13.7167 6.54167 16.15 5.525C18.5833 4.50833 21.2 4 24 4C26.8 4 29.4167 4.50833 31.85 5.525C34.2833 6.54167 36.4 7.95 38.2 9.75C40 11.55 41.4167 13.6583 42.45 16.075C43.4833 18.4917 44 21.1 44 23.9C44 26.7 43.4833 29.325 42.45 31.775C41.4167 34.225 40 36.35 38.2 38.15C36.4 39.95 34.2833 41.375 31.85 42.425C29.4167 43.475 26.8 44 24 44ZM24 41.1C25.1667 39.9 26.1417 38.525 26.925 36.975C27.7083 35.425 28.35 33.5833 28.85 31.45H19.2C19.6667 33.45 20.2917 35.25 21.075 36.85C21.8583 38.45 22.8333 39.8667 24 41.1ZM19.75 40.5C18.9167 39.2333 18.2 37.8667 17.6 36.4C17 34.9333 16.5 33.2833 16.1 31.45H8.6C9.86667 33.8167 11.3333 35.675 13 37.025C14.6667 38.375 16.9167 39.5333 19.75 40.5ZM28.3 40.45C30.7 39.6833 32.8583 38.5333 34.775 37C36.6917 35.4667 38.2333 33.6167 39.4 31.45H31.95C31.5167 33.25 31.0083 34.8833 30.425 36.35C29.8417 37.8167 29.1333 39.1833 28.3 40.45ZM7.6 28.45H15.55C15.45 27.55 15.3917 26.7417 15.375 26.025C15.3583 25.3083 15.35 24.6 15.35 23.9C15.35 23.0667 15.3667 22.325 15.4 21.675C15.4333 21.025 15.5 20.3 15.6 19.5H7.6C7.36667 20.3 7.20833 21.0167 7.125 21.65C7.04167 22.2833 7 23.0333 7 23.9C7 24.7667 7.04167 25.5417 7.125 26.225C7.20833 26.9083 7.36667 27.65 7.6 28.45ZM18.65 28.45H29.4C29.5333 27.4167 29.6167 26.575 29.65 25.925C29.6833 25.275 29.7 24.6 29.7 23.9C29.7 23.2333 29.6833 22.5917 29.65 21.975C29.6167 21.3583 29.5333 20.5333 29.4 19.5H18.65C18.5167 20.5333 18.4333 21.3583 18.4 21.975C18.3667 22.5917 18.35 23.2333 18.35 23.9C18.35 24.6 18.3667 25.275 18.4 25.925C18.4333 26.575 18.5167 27.4167 18.65 28.45ZM32.4 28.45H40.4C40.6333 27.65 40.7917 26.9083 40.875 26.225C40.9583 25.5417 41 24.7667 41 23.9C41 23.0333 40.9583 22.2833 40.875 21.65C40.7917 21.0167 40.6333 20.3 40.4 19.5H32.45C32.55 20.6667 32.6167 21.5583 32.65 22.175C32.6833 22.7917 32.7 23.3667 32.7 23.9C32.7 24.6333 32.675 25.325 32.625 25.975C32.575 26.625 32.5 27.45 32.4 28.45ZM31.9 16.5H39.4C38.3 14.2 36.7917 12.2833 34.875 10.75C32.9583 9.21667 30.75 8.13333 28.25 7.5C29.0833 8.73333 29.7917 10.0667 30.375 11.5C30.9583 12.9333 31.4667 14.6 31.9 16.5ZM19.2 16.5H28.9C28.5333 14.7333 27.9167 13.025 27.05 11.375C26.1833 9.725 25.1667 8.26667 24 7C22.9333 7.9 22.0333 9.08333 21.3 10.55C20.5667 12.0167 19.8667 14 19.2 16.5ZM8.6 16.5H16.15C16.5167 14.7 16.9833 13.0917 17.55 11.675C18.1167 10.2583 18.8333 8.88333 19.7 7.55C17.2 8.18333 15.0167 9.25 13.15 10.75C11.2833 12.25 9.76667 14.1667 8.6 16.5Z" fill="#FFC107"/>
</svg>
